<svg xmlns="http://www.w3.org/2000/svg" xmlns:svg="http://www.w3.org/2000/svg" id="svg5" width="234" height="324" version="1.1" viewBox="0 0 5.8 8.034"><g id="layer1" transform="translate(-3.4502451,-2.3221378)"><g id="g1156" transform="matrix(0.80588472,0,0,0.80588472,1.3641129,1.2537559)"><path style="fill:none;fill-rule:evenodd;stroke:#fff;stroke-width:.8px;stroke-linecap:round;stroke-linejoin:miter;stroke-opacity:1" id="path839" d="M 6.0943208,5.9898731 C 6.2588927,6.1071769 6.1041993,6.3498412 5.9828716,6.4259916 5.5743887,6.6823728 5.0926498,6.3097737 4.9438619,5.9294955 4.6140314,5.0865013 5.3231824,4.2501357 6.1084717,4.0327579 7.529564,3.6393819 8.8379977,4.8117974 9.117774,6.148548 9.4859968,7.9078893 8.3224047,9.6061964 6.7188563,10.25811" transform="matrix(1,0,0,-1,0.19807867,11.983836)"/><path style="fill:none;fill-rule:evenodd;stroke:#fff;stroke-width:.8px;stroke-linecap:round;stroke-linejoin:miter;stroke-opacity:1" id="path841" d="M 6.316304,6.3607564 C 6.169417,6.1752364 6.4224185,5.9526981 6.5836693,5.9065654 7.1265642,5.7512473 7.5470185,6.3271736 7.5905158,6.8033099 7.6869398,7.8588009 6.6170226,8.5684904 5.6630504,8.5572352 3.9367025,8.5368673 2.8469604,6.7922056 2.9676231,5.1977073 3.1264313,3.0991359 4.9881328,1.5680458 7.003875,1.3570638" transform="matrix(1,0,0,-1,0.03028437,12.251636)"/></g></g></svg>